<?xml version="1.0" encoding="utf-8"?><!-- Uploaded to: SVG Repo, www.svgrepo.com, Generator: SVG Repo Mixer Tools -->
<svg width="800px" height="800px" viewBox="0 0 24 24" fill="none" xmlns="http://www.w3.org/2000/svg">
<path fill-rule="evenodd" clip-rule="evenodd" d="M3 4C3 2.89543 3.89543 2 5 2H17C18.1046 2 19 2.89543 19 4V5.09005C19.3888 5.15136 19.8652 5.25646 20.3511 5.43867C20.9435 5.66081 21.6037 6.01768 22.1224 6.60126C22.6595 7.20549 23 8.00415 23 9C23 9.99585 22.6595 10.7945 22.1224 11.3987C21.6037 11.9823 20.9435 12.3392 20.3511 12.5613C19.8312 12.7563 19.3222 12.863 18.9197 12.9222L18.9186 12.9296C18.8395 13.4569 18.6795 14.1769 18.3494 14.9104C18.0188 15.6451 17.5028 16.4253 16.6968 17.0223C15.8791 17.628 14.8231 18 13.5 18H8.5C7.17691 18 6.12087 17.628 5.30321 17.0223C4.49723 16.4253 3.9812 15.6451 3.65058 14.9104C3.24764 14.015 3.00268 12.9895 3 12.002L3 4ZM19 10.8763V7.12365C19.2094 7.16883 19.4312 7.22971 19.6489 7.31133C20.0565 7.46419 20.3963 7.66982 20.6276 7.92999C20.8405 8.16952 21 8.49585 21 9C21 9.50415 20.8405 9.83049 20.6276 10.07C20.3963 10.3302 20.0565 10.5358 19.6489 10.6887C19.4312 10.7703 19.2094 10.8312 19 10.8763ZM5 11.9973C5.00914 12.7072 5.18467 13.4457 5.47442 14.0896C5.7063 14.6049 6.03403 15.0747 6.49366 15.4152C6.94163 15.747 7.57309 16 8.5 16H13.5C14.4269 16 15.0584 15.747 15.5063 15.4152C15.966 15.0747 16.2937 14.6049 16.5256 14.0896C16.8136 13.4496 16.9975 12.7047 17 11.9974L17 4H5V11.9973Z" fill="#666666"/>
<path d="M23 21C23 20.4477 22.5523 20 22 20H2C1.44772 20 1 20.4477 1 21C1 21.5523 1.44772 22 2 22H22C22.5523 22 23 21.5523 23 21Z" fill="#666666"/>
</svg>